<?xml version="1.0" encoding="UTF-8"?>
<svg version="1.1" xmlns="http://www.w3.org/2000/svg" width="2000" height="1374">
<path d="M0 0 C0.9792041 0.23477051 1.9584082 0.46954102 2.96728516 0.71142578 C3.83401855 0.92911621 4.70075195 1.14680664 5.59375 1.37109375 C6.33302734 1.55470459 7.07230469 1.73831543 7.83398438 1.92749023 C9.5 2.5625 9.5 2.5625 10.5 4.5625 C9.93067932 6.89624023 9.93067932 6.89624023 8.93969727 9.87109375 C8.57017441 10.9929306 8.20065155 12.11476746 7.81993103 13.27059937 C7.19943626 15.11665268 7.19943626 15.11665268 6.56640625 17 C6.137724 18.29343595 5.70976543 19.58711194 5.28248596 20.88101196 C4.36503441 23.65506153 3.44318995 26.4275964 2.5178833 29.19903564 C0.30516467 35.82769278 -1.88480866 42.4638793 -4.0771637 49.09929276 C-4.81910306 51.34409696 -5.56191501 53.58861112 -6.30480957 55.83309937 C-10.41435125 68.25741836 -14.41553527 80.71456282 -18.375 93.1875 C-25.03015177 114.12226192 -31.87981353 134.9907067 -38.75510788 155.85388565 C-45.37883493 175.95489711 -51.93987678 196.07221592 -58.34875488 216.24301147 C-65.61574425 239.0976882 -73.13154809 261.87048689 -80.64880657 284.64379311 C-81.66615659 287.7262472 -82.68265861 290.80898067 -83.69913292 293.89172363 C-84.39707028 296.00685924 -85.09652478 298.12148859 -85.7960968 300.23608398 C-86.22977974 301.55032311 -86.66331157 302.86461211 -87.09667969 304.17895508 C-87.50317749 305.41151031 -87.90967529 306.64406555 -88.32849121 307.91397095 C-89.84542126 312.6382747 -91.24212628 317.39537483 -92.60821533 322.16532898 C-93.5 324.5625 -93.5 324.5625 -95.5 325.5625 C-97.31567781 325.38170118 -99.12294415 325.11440466 -100.921875 324.80908203 C-102.07272079 324.61749008 -103.22356659 324.42589813 -104.4092865 324.22850037 C-105.67672195 324.01129837 -106.94415741 323.79409637 -108.25 323.5703125 C-109.58971931 323.34611284 -110.92957164 323.12270684 -112.26954651 322.90003967 C-115.15864562 322.41951732 -118.04726137 321.93622598 -120.93557739 321.45101929 C-208.86273871 306.71025153 -297.51610986 295.46088296 -531.61425781 302.93652344 C-532.62815582 303.04400406 -533.64205383 303.15148468 -534.68667603 303.26222229 C-536.55775838 303.46249461 -538.42839606 303.66699204 -540.2984314 303.8768158 C-545.40138593 304.42962101 -550.36671665 304.65627045 -555.5 304.5625 C-555.63462646 305.45590088 -555.76925293 306.34930176 -555.90795898 307.26977539 C-559.23632392 329.28617023 -562.72101081 351.27496818 -566.3125 373.25 C-566.51285858 374.4792923 -566.71321716 375.70858459 -566.91964722 376.97512817 C-567.49261832 380.4876544 -568.06809214 383.99976018 -568.64453125 387.51171875 C-568.81721527 388.57049225 -568.98989929 389.62926575 -569.16781616 390.72012329 C-569.32875763 391.69637665 -569.4896991 392.67263 -569.65551758 393.6784668 C-569.79508377 394.52902145 -569.93464996 395.37957611 -570.07844543 396.25590515 C-570.46808539 398.38787473 -570.94718464 400.46759594 -571.5 402.5625 C-570.67813705 402.60087982 -569.85627411 402.63925964 -569.00950623 402.67880249 C-555.57356923 403.4078437 -542.21542336 404.84965273 -528.83670354 406.26038027 C-526.75851386 406.47936995 -524.68023469 406.69749094 -522.6019268 406.91535568 C-515.26359851 407.68478629 -507.92570006 408.45819175 -500.58813477 409.23486328 C-494.63075541 409.86533777 -488.67276003 410.48954982 -482.71411133 411.10791016 C-401.23485733 419.56762107 -319.31006604 429.46901458 -117.875 541.9375 C-116.40259666 543.80147144 -114.94498163 545.67719122 -113.5 547.5625 C-113.08572754 548.09504395 -112.67145508 548.62758789 -112.24462891 549.17626953 C-89.15048153 578.99089075 -73.85146473 613.4896619 -66.0625 650.3125 C-65.83973389 651.36131348 -65.61696777 652.41012695 -65.38745117 653.49072266 C-61.15583492 675.15594558 -59.97922809 696.84627049 -60.125 718.875 C-60.13197906 720.76895508 -60.13197906 720.76895508 -60.13909912 722.70117188 C-60.22971723 743.78564906 -60.96307819 764.62803244 -63.5 785.5625 C-63.64565399 786.77601135 -63.64565399 786.77601135 -63.79425049 788.01403809 C-74.80028785 878.82530411 -102.59633552 966.77187602 -159.5 1071.5625 C-159.96100098 1072.32433594 -160.42200195 1073.08617187 -160.89697266 1073.87109375 C-172.31420466 1092.69697314 -184.79884664 1110.68995086 -199.890625 1126.765625 C-202.27477729 1129.32109362 -204.57742106 1131.92950808 -206.875 1134.5625 C-255.44538426 1188.46273173 -334.64872548 1228.3737926 -404.5 1244.5625 C-405.54897461 1244.81064453 -406.59794922 1245.05878906 -407.67871094 1245.31445312 C-448.0855852 1254.68814805 -490.20214223 1259.07796657 -531.5 1262.5625 C-532.30904785 1262.63084045 -533.1180957 1262.69918091 -533.95166016 1262.76959229 C-581.3878436 1266.73454905 -628.91536056 1268.01999761 -676.5 1268.5625 C-677.33345947 1268.57216797 -678.16691895 1268.58183594 -679.02563477 1268.59179688 C-688.38599594 1268.69563448 -697.74377755 1268.69107397 -707.10412598 1268.58856201 C-708.79902035 1268.57012517 -710.49392774 1268.55286621 -712.18884277 1268.53643799 C-810.4462565 1267.57664082 -908.40426522 1260.44253238 -1144.5 1216.5625 C-1143.2460333 1210.37212499 -1141.59595658 1204.44558261 -1139.55761719 1198.47070312 C-1139.26769897 1197.60865768 -1138.97778076 1196.74661224 -1138.67907715 1195.85844421 C-1137.72277649 1193.01869544 -1136.75988866 1190.18122858 -1135.796875 1187.34375 C-1135.11543978 1185.32504027 -1134.43439721 1183.30619795 -1133.75372314 1181.28723145 C-1131.95487663 1175.95539721 -1130.15035362 1170.62550063 -1128.34472656 1165.29595947 C-1126.56206961 1160.0305816 -1124.78531388 1154.76321374 -1123.0078125 1149.49609375 C-1115.83257536 1128.24419287 -1108.61463806 1107.00707248 -1101.35804749 1085.78282166 C-1096.69465977 1072.14250867 -1092.06131207 1058.49227152 -1087.44287109 1044.83666992 C-1085.20675288 1038.225292 -1082.96864897 1031.61458634 -1080.73046875 1025.00390625 C-1080.50627636 1024.3416869 -1080.28208397 1023.67946754 -1080.05109787 1022.99718094 C-1075.37765551 1009.19341506 -1070.68715345 995.39547265 -1065.99142456 981.59927368 C-1061.87465567 969.50341526 -1057.76717997 957.40446253 -1053.67324829 945.30085754 C-1052.9547132 943.17657036 -1052.23604138 941.05232948 -1051.51733398 938.92810059 C-1049.41217324 932.70575258 -1047.30743744 926.48326365 -1045.20550919 920.25982285 C-1044.54895901 918.31648061 -1043.89186814 916.37332215 -1043.23455811 914.43023682 C-1042.43352825 912.06218718 -1041.63335925 909.69384606 -1040.83428955 907.32513428 C-1038.14224872 899.37231362 -1035.34465996 891.46177777 -1032.5 883.5625 C-1031.7922644 883.7407431 -1031.08452881 883.91898621 -1030.35534668 884.10263062 C-944.77983343 905.63133533 -858.60229768 923.69330136 -749.8125 929.1875 C-748.58023682 929.22770264 -747.34797363 929.26790527 -746.07836914 929.30932617 C-669.50316249 931.43242859 -591.25735291 929.10787258 -515.20336914 919.78173828 C-514.52640991 919.69967133 -513.84945068 919.61760437 -513.15197754 919.53305054 C-511.38067228 919.31621834 -509.61032529 919.09159519 -507.84008789 918.86621094 C-504.03165917 918.51991422 -500.32373858 918.54335538 -496.5 918.5625 C-496.39047501 917.62996902 -496.28095001 916.69743805 -496.16810608 915.73664856 C-494.87015526 904.908688 -493.23305904 894.15191964 -491.49609375 883.38671875 C-491.20971636 881.60076042 -490.92351057 879.81477456 -490.63746643 878.02876282 C-490.0433758 874.32332991 -489.44734568 870.61821597 -488.84985352 866.91333008 C-488.08404849 862.1638603 -487.32306899 857.41363178 -486.56347561 852.66316509 C-485.97596991 848.99209559 -485.38604457 845.32141817 -484.79536629 841.65085793 C-484.5135518 839.89786286 -484.23247303 838.14474936 -483.95214653 836.39151573 C-483.56226469 833.95551364 -483.16914923 831.52005528 -482.77514648 829.0847168 C-482.66032425 828.36322952 -482.54550201 827.64174225 -482.42720032 826.89839172 C-481.95755663 824.01375082 -481.42637602 821.34162807 -480.5 818.5625 C-482.07118513 818.47877577 -482.07118513 818.47877577 -483.67411137 818.39336014 C-493.47017288 817.85467437 -503.22637778 817.10317618 -512.99194336 816.15136719 C-514.45335486 816.01129558 -515.91479168 815.87148784 -517.37625122 815.73191833 C-521.29765445 815.35655808 -525.21866229 814.97721696 -529.13958049 814.59682751 C-532.45675027 814.27536398 -535.77410618 813.95584346 -539.09145838 813.63626885 C-546.96075307 812.87812126 -554.82971943 812.11663196 -562.69848633 811.35302734 C-569.81270688 810.6626989 -576.92728386 809.97620021 -584.04223633 809.29345703 C-684.04187087 799.69551319 -684.04187087 799.69551319 -716.875 794.125 C-717.75237823 793.97909424 -718.62975647 793.83318848 -719.53372192 793.68286133 C-734.96772963 791.11440837 -750.26306516 788.13109586 -765.5 784.5625 C-766.59070801 784.3159668 -767.68141602 784.06943359 -768.80517578 783.81542969 C-817.6272786 772.74501254 -868.99454842 755.06469199 -908.5 723.5625 C-909.3971875 722.85738281 -910.294375 722.15226563 -911.21875 721.42578125 C-921.39060768 713.28537216 -931.20259583 704.63253142 -939.5 694.5625 C-940.2321875 693.72976563 -940.964375 692.89703125 -941.71875 692.0390625 C-979.14359229 648.81100099 -995.18651062 590.88930304 -996.5 534.5625 C-996.52191406 533.67143555 -996.54382813 532.78037109 -996.56640625 531.86230469 C-998.02509015 461.18906975 -984.55578023 389.90277154 -967.0534668 321.71966553 C-966.51658087 319.62712479 -965.98371575 317.53359065 -965.45117188 315.43994141 C-945.64868186 237.95221763 -915.46814955 160.08986221 -864.5 97.5625 C-864.06896973 97.03237305 -863.63793945 96.50224609 -863.19384766 95.95605469 C-848.08202879 77.47658885 -831.52419505 60.98738263 -812.5 46.5625 C-811.91379883 46.11406738 -811.32759766 45.66563477 -810.72363281 45.20361328 C-741.94306074 -7.24110079 -654.42721386 -29.80599534 0 0 Z " fill="#FD5D2F" transform="translate(1947.5,76.4375)"/>
<path d="M0 0 C285.45 0 570.9 0 865 0 C864.33552106 5.31583152 863.59556351 10.31921714 862.51171875 15.53125 C862.2156073 16.98071598 861.92031319 18.43034911 861.62573242 19.88012695 C861.4723642 20.63315094 861.31899597 21.38617493 861.16098022 22.16201782 C857.78545007 38.82993535 855.32129239 55.44496931 853.42724609 72.34228516 C852.69951299 78.5725122 851.84505527 84.78475367 851 91 C840.7745877 90.39003917 830.60846592 89.51170893 820.42256165 88.41603088 C818.90632041 88.25516201 817.39005166 88.0945522 815.87375838 87.93417466 C811.73523927 87.49570039 807.59711501 87.05359666 803.45904931 86.61086665 C798.95051644 86.1291678 794.44161735 85.65091928 789.93276405 85.17223072 C782.04863466 84.33473255 774.1647371 83.49507983 766.28098869 82.65400314 C754.58758752 81.40651468 742.89381851 80.16250091 731.19996754 78.91923678 C711.59203824 76.83448446 691.98438598 74.7471378 672.37689209 72.65829468 C644.46861042 69.68517696 616.55996538 66.71548097 588.65121078 63.74680622 C584.95736764 63.35388915 581.26352524 62.96096512 577.56968307 62.56803882 C575.73435654 62.37280914 575.73435654 62.37280914 573.86195269 62.17363543 C572.63635169 62.04326421 571.41075068 61.91289299 570.14801025 61.77857113 C562.68208884 60.98439694 555.21616689 60.19022791 547.75024271 59.39607972 C532.59740426 57.78425944 517.44460376 56.1720829 502.29182863 54.55966753 C432.67534475 47.15176239 363.05726921 39.75899189 293.43762088 32.38088632 C286.42241857 31.6374322 279.40722398 30.89390529 272.39203072 30.15036583 C231.20655022 25.78515096 190.02098582 21.42072881 148.83514773 17.05888897 C131.31538656 15.20341882 113.79572024 13.34705516 96.27614456 11.48983431 C85.90240733 10.39016896 75.5285887 9.29127811 65.15465255 8.19349088 C58.25014072 7.46278053 51.34572481 6.73116869 44.44138728 5.99881325 C40.50911686 5.58173961 36.57680389 5.16507851 32.64437068 4.74954236 C29.07096098 4.3719376 25.49767722 3.9931639 21.92449092 3.61345123 C20.03295729 3.41275133 18.14129039 3.21330865 16.24961859 3.01391518 C10.81598703 2.43537237 5.40164456 1.82770072 0 1 C0 0.67 0 0.34 0 0 Z " fill="#FD5D2F" transform="translate(43,445)"/>
<path d="M0 0 C284.79 0 569.58 0 863 0 C861.87492955 6.75042273 861.87492955 6.75042273 860.82348633 9.88598633 C860.58796555 10.59550949 860.35244476 11.30503265 860.10978699 12.03605652 C859.85312759 12.79372818 859.5964682 13.55139984 859.33203125 14.33203125 C859.06034622 15.14557571 858.78866119 15.95912018 858.50874329 16.7973175 C857.61452228 19.47058642 856.71365601 22.14156168 855.8125 24.8125 C855.18902071 26.67097075 854.56581489 28.52953328 853.94287109 30.38818359 C847.37613459 49.9528412 840.69937112 69.48042674 834 89 C824.99424429 89.23476564 816.20038438 88.31769829 807.26493835 87.3507843 C805.5627197 87.17051049 803.86045204 86.99069886 802.1581403 86.81130618 C797.48406306 86.31739595 792.81070548 85.81694914 788.13743927 85.31543112 C783.06541113 84.77229265 777.99273585 84.23526176 772.92013836 83.69747162 C764.06065354 82.75735934 755.20158743 81.81338033 746.34278488 80.86686134 C733.26995938 79.47012493 720.19648572 78.07953127 707.12286201 76.69028851 C685.35560772 74.37707459 663.58885783 72.05914746 641.82241821 69.73828125 C620.43864697 67.45823403 599.05470958 65.1797573 577.67050171 62.90380859 C577.00886916 62.83338958 576.34723661 62.76297056 575.66555458 62.69041763 C566.28325046 61.69184421 556.9009327 60.69339898 547.51861089 59.6949918 C544.15548642 59.33710765 540.79236291 58.97921454 537.42923939 58.62132144 C536.76257009 58.55037668 536.09590078 58.47943191 535.40902937 58.4063373 C532.03875808 58.04768394 528.66848689 57.68902963 525.29821578 57.33037453 C523.94878706 57.1867721 522.59935833 57.04316967 521.24992961 56.89956725 C520.58171287 56.82845738 519.91349613 56.75734752 519.2250304 56.68408281 C515.84923347 56.32484038 512.47343594 55.96560349 509.09763727 55.60637729 C494.17512484 54.01843942 479.25264264 52.43021838 464.33024788 50.84117508 C395.20238391 43.47996737 326.07194507 36.14377736 256.9363842 28.85515404 C245.42372973 27.64142357 233.9111914 26.42659449 222.39869644 25.21135195 C217.33381693 24.67671265 212.26893161 24.1421283 207.2040472 23.60753536 C201.26856745 22.98105084 195.33308861 22.35455779 189.3976146 21.72801888 C167.53021181 19.41980009 145.66242459 17.11531088 123.79383352 14.81837595 C108.785028 13.24185654 93.77679557 11.65997635 78.76914859 10.07246536 C69.98234544 9.14319278 61.19509875 8.2183884 52.40713927 7.30011391 C46.60804588 6.69374879 40.80955268 6.08186619 35.01153115 5.46533651 C31.72085871 5.11559425 28.42989258 4.76922979 25.1383251 4.42799914 C21.61174669 4.06204167 18.08630202 3.68664275 14.56098938 3.30871582 C13.02357375 3.1526764 13.02357375 3.1526764 11.45509923 2.99348468 C10.52182769 2.89144475 9.58855616 2.78940482 8.62700367 2.68427277 C7.82365961 2.59973862 7.02031555 2.51520448 6.19262773 2.42810869 C4 2 4 2 0 0 Z " fill="#FE5E2F" transform="translate(99,252)"/>
<path d="M0 0 C274.89 0 549.78 0 833 0 C833.99 8.25 834.98 16.5 836 25 C836.7339072 30.34459991 837.48176665 35.67160509 838.3125 41 C838.46532944 41.9853775 838.46532944 41.9853775 838.62124634 42.99066162 C840.85518105 57.25822019 843.48334505 71.74211614 848.17578125 85.4296875 C849 88 849 88 849 92 C800.82084293 86.98595756 752.64799711 81.91361889 704.48046875 76.7890625 C703.17642955 76.65032573 701.87239036 76.51158896 700.52883482 76.36864805 C684.55787058 74.669413 668.58703909 72.96893161 652.6162511 71.26804097 C636.01577634 69.50009135 619.41519464 67.73314684 602.81460276 65.96629736 C595.689663 65.20796621 588.56472592 64.44960983 581.43978882 63.69125366 C580.64558461 63.60672141 579.85138041 63.52218916 579.03310941 63.43509533 C567.61524652 62.21981593 556.19739788 61.00440268 544.77955966 59.78889151 C497.45836401 54.75121541 450.13687258 49.71632452 402.81519292 44.68319707 C393.71112384 43.71488838 384.60705871 42.74654259 375.50299386 41.77819408 C360.14503348 40.14465502 344.78707158 38.51113035 329.42910767 36.87762451 C328.54591723 36.78368645 327.6627268 36.68974838 326.75277302 36.59296371 C316.30924596 35.48216938 305.8657153 34.37140883 295.42217842 33.2607067 C291.21873838 32.81365789 287.01529888 32.36660394 282.81186098 31.91953504 C281.98581676 31.8316787 281.15977255 31.74382237 280.30869669 31.65330372 C278.64583743 31.47644531 276.98297819 31.2995866 275.32011899 31.1227276 C270.36100525 30.59528986 265.40188579 30.06790606 260.44276245 29.54055863 C244.30404792 27.8243602 228.16543429 26.10722779 212.02719442 24.38657118 C205.69846993 23.71183568 199.36971662 23.03737061 193.04095306 22.36300173 C191.46197499 22.19475043 189.88299811 22.02648804 188.30402242 21.85821447 C166.37926073 19.52177584 144.45271832 17.20283014 122.52442132 14.89980762 C121.17948431 14.75855205 121.17948431 14.75855205 119.80737686 14.61444283 C118.46202202 14.47314403 118.46202202 14.47314403 117.08948828 14.32899071 C105.6120357 13.12321006 94.13522083 11.91138071 82.65846992 10.69894207 C73.38358821 9.71943499 64.10815751 8.74546346 54.83194733 7.77861735 C48.57424245 7.12593537 42.31721912 6.46697811 36.06070495 5.80297986 C32.45321957 5.42034254 28.8454802 5.04070846 25.23687458 4.66877127 C21.32923638 4.26596559 17.42310486 3.84967404 13.51702881 3.43197632 C12.3666838 3.31563107 11.21633879 3.19928582 10.03113484 3.07941496 C8.99246919 2.96610756 7.95380354 2.85280015 6.88366318 2.73605919 C5.98229559 2.64150613 5.080928 2.54695307 4.15224624 2.44953477 C2 2 2 2 0 0 Z " fill="#FE5E2F" transform="translate(61,637)"/>
<path d="M0 0 C82.4629422 -0.11993853 164.92589493 -0.23124008 247.38890076 -0.29640198 C248.60876707 -0.29736838 249.82863338 -0.29833478 251.08546534 -0.29933046 C277.59443874 -0.32027928 304.10341306 -0.33967077 330.61238876 -0.35745731 C343.61179128 -0.3661889 356.61119355 -0.37526475 369.6105957 -0.38452148 C371.55102339 -0.38589445 371.55102339 -0.38589445 373.53065164 -0.38729516 C415.48432541 -0.41714136 457.43793333 -0.46973299 499.39156718 -0.53408055 C542.49305972 -0.60006882 585.5945158 -0.64318883 628.69605801 -0.65740493 C634.77945256 -0.65942211 640.86284698 -0.66170157 646.94624138 -0.6641407 C648.14357773 -0.66461266 649.34091409 -0.66508462 650.57453336 -0.66557089 C669.87282021 -0.67385305 689.17099451 -0.70634669 708.4692354 -0.74782424 C727.85569004 -0.78897724 747.24203275 -0.80479039 766.62852956 -0.79450964 C778.15606059 -0.78917285 789.683183 -0.80349247 801.21064048 -0.8455828 C808.90347978 -0.87176055 816.59605037 -0.87269653 824.28890796 -0.8528227 C828.67720395 -0.84221701 833.06472525 -0.84285629 837.45293934 -0.87418228 C841.44319394 -0.90245188 845.43206745 -0.89865015 849.42230013 -0.86897983 C850.85875042 -0.86396929 852.29530131 -0.87076509 853.73162275 -0.89064671 C864.42624255 -1.02932685 864.42624255 -1.02932685 868.32523578 1.52083641 C870.07081023 3.25833484 871.51363028 5.04201009 873 7 C875.08616852 8.85654592 877.28546409 10.54947192 879.5 12.25 C880.40274658 12.94814819 880.40274658 12.94814819 881.32373047 13.66040039 C883.21100644 15.11333432 885.10536645 16.55668014 887 18 C887.58813477 18.4542334 888.17626953 18.9084668 888.78222656 19.37646484 C919.09303567 42.73718571 954.74180486 59.23544036 991 71 C992.05993164 71.34772461 993.11986328 71.69544922 994.21191406 72.05371094 C1012.30150212 77.95393584 1030.4577896 82.76753893 1049 87 C1051.44803615 87.56458635 1053.89595679 88.1296738 1056.34375 88.6953125 C1058.22915582 89.13025535 1060.11456829 89.5651694 1062 90 C1062 90.33 1062 90.66 1062 91 C1053.05967485 91.18549131 1044.24248674 90.45703502 1035.34529114 89.68572998 C1033.65055046 89.5419565 1031.95577823 89.39855461 1030.26097763 89.25548929 C1025.60459045 88.86134288 1020.94866744 88.46193418 1016.29280291 88.06166767 C1011.23333221 87.62764464 1006.17344402 87.19854 1001.11360645 86.76881886 C992.26054476 86.01626893 983.40775409 85.26059474 974.55513382 84.50287056 C961.4462876 83.38086074 948.33703008 82.2637153 935.22767934 81.1476175 C913.27979058 79.27890004 891.33223076 77.40634252 869.38485718 75.53158569 C847.66662306 73.67641895 825.94823722 71.82304376 804.22964478 69.97207642 C803.21725354 69.8857945 803.21725354 69.8857945 802.18440995 69.79776951 C794.65444577 69.15602544 787.12447677 68.5143378 779.59450543 67.87267768 C765.75570303 66.69341492 751.91691933 65.51393283 738.07814026 64.33439636 C737.38894046 64.27565359 736.69974067 64.21691081 735.98965603 64.15638796 C714.16526384 62.29621836 692.34095619 60.43505904 670.51670837 58.57319641 C669.09907391 58.45225651 667.68143945 58.33131668 666.26380498 58.21037691 C661.30731249 57.78753293 656.35082023 57.36468612 651.39432814 56.94183743 C585.07605746 51.28408913 518.75704045 45.635149 452.43746844 39.99267226 C448.80880016 39.68394366 445.1801324 39.37520906 441.5514648 39.06647253 C420.31516936 37.25963497 399.0788669 35.45288003 377.84255123 33.64628029 C348.07438209 31.11385585 318.30626663 28.58080148 288.53820489 26.04711488 C284.34741612 25.69042284 280.15662608 25.33374563 275.96583609 24.97706795 C255.96101199 23.27445182 235.95621101 21.57156499 215.95148168 19.86783575 C207.46815079 19.14535705 198.98480932 18.42300265 190.50146484 17.70068359 C189.5865117 17.62277652 188.67155855 17.54486944 187.72887956 17.46460155 C162.46589082 15.3135377 137.20239866 13.16850016 111.93836391 11.02975702 C105.92999013 10.52108308 99.92165162 10.01199438 93.91333866 9.50260258 C93.08718175 9.43256135 92.26102485 9.36252013 91.40983288 9.29035645 C88.1287897 9.01218061 84.84774778 8.73398973 81.56671078 8.455741 C72.2303 7.66397125 62.89377437 6.87359398 53.55701731 6.08591776 C47.90499316 5.60898405 42.25311364 5.13036261 36.60134943 4.65035845 C33.38819412 4.3775286 30.17495372 4.10578017 26.96156907 3.83566308 C23.50965299 3.5454027 20.05800087 3.25218211 16.60639954 2.95820618 C15.60780244 2.87498067 14.60920534 2.79175516 13.58034772 2.70600766 C9.00970923 2.31368205 4.51402613 1.850061 0 1 C0 0.67 0 0.34 0 0 Z " fill="#FD5D2F" transform="translate(113,830)"/>
<path d="M0 0 C284.79 0 569.58 0 863 0 C859.96515343 2.42787726 856.99181802 4.7716512 853.84765625 7.03125 C830.30963473 24.07092373 807.74436137 43.70407542 789 66 C787.99733873 67.16383414 786.99329319 68.32647638 785.98828125 69.48828125 C784.88786913 70.76288988 783.7876099 72.03763052 782.6875 73.3125 C782.15882324 73.92416016 781.63014648 74.53582031 781.08544922 75.16601562 C780.58674316 75.74673828 780.08803711 76.32746094 779.57421875 76.92578125 C778.90265747 77.70562378 778.90265747 77.70562378 778.2175293 78.5012207 C777.0550669 79.93221261 776.02267472 81.46598792 775 83 C744.32961445 80.08167852 713.69105039 76.89139463 683.0559814 73.62499189 C677.09617345 72.98990854 671.13618233 72.35655005 665.17619709 71.72313324 C653.0377882 70.43302986 640.89954996 69.14132788 628.76141357 67.84866333 C616.69692934 66.5638515 604.63236118 65.2798319 592.56768799 63.99679565 C591.80828132 63.91603524 591.04887465 63.83527484 590.26645565 63.75206714 C586.41042695 63.34199646 582.55439653 62.9319419 578.69836521 62.52189577 C570.90231606 61.69286941 563.10627722 60.86374614 555.3102417 60.03459167 C554.53344661 59.95197517 553.75665152 59.86935867 552.95631719 59.78423864 C536.30563816 58.01332291 519.65506299 56.24143162 503.00449467 54.46947539 C467.26518181 50.66609956 431.52553643 46.86585895 395.78569034 43.06749743 C392.40135842 42.70781577 389.01702732 42.34812639 385.63269615 41.98843765 C376.26002074 40.99230605 366.8873453 39.99617472 357.51466644 39.00007558 C330.13597314 36.09035291 302.75736625 33.1798177 275.37877464 30.26913834 C213.94494064 23.73797515 152.51093707 17.20840792 91.07687855 10.67935705 C85.35494272 10.07124397 79.63300727 9.46312727 73.91107178 8.85501099 C49.27405171 6.23663772 24.63702824 3.61829637 0 1 C0 0.67 0 0.34 0 0 Z " fill="#FD5D2F" transform="translate(250,60)"/>
<path d="M0 0 C247.83 0 495.66 0 751 0 C749.17574559 6.68893282 747.35574501 13.21314658 745.1015625 19.7421875 C744.82997314 20.53735275 744.55838379 21.33251801 744.27856445 22.15177917 C743.39758964 24.72741733 742.51148922 27.30125515 741.625 29.875 C741.00816566 31.67370041 740.39146846 33.47244786 739.77490234 35.27124023 C733.61497548 53.21525823 727.3233223 71.11302364 721 89 C708.05468997 87.75090326 695.14052115 86.34649113 682.23339844 84.75244141 C680.41679075 84.52980213 678.60015883 84.30736051 676.78350544 84.08509445 C671.79111604 83.47370866 666.79907102 82.85955093 661.80707669 82.24494886 C656.25818093 81.56231485 650.70895626 80.88236369 645.15977478 80.20205688 C635.29224225 78.99197971 625.42491178 77.78026575 615.55770874 76.56750488 C604.97045327 75.26626098 594.38308419 73.96594794 583.79556274 72.66687012 C583.12634706 72.58475794 582.45713138 72.50264577 581.76763644 72.41804534 C578.33611586 71.99700785 574.90459268 71.57599144 571.47306812 71.15498638 C564.28291297 70.27284207 557.09277172 69.39058441 549.90263367 68.50830078 C549.16656229 68.41797992 548.43049092 68.32765906 547.67211435 68.2346012 C535.99622301 66.8018742 524.32039963 65.36859419 512.64460754 63.93505859 C457.95660632 57.22063216 403.26768224 50.51374293 348.57855085 43.80852837 C335.32017209 42.18296832 322.06180363 40.55732427 308.80343628 38.93167114 C307.60787033 38.78507892 306.41230438 38.6384867 305.18050916 38.48745228 C297.92314864 37.59760351 290.66578843 36.70775222 283.4084284 35.81789944 C279.7758102 35.3724903 276.14319192 34.92708184 272.51057363 34.48167348 C256.7800433 32.5528956 241.04951523 30.62409933 225.31898999 28.69527996 C222.89521452 28.39808552 220.47143901 28.10089143 218.04766345 27.80369771 C188.65706226 24.19993732 159.26648521 20.59598031 129.87599236 16.99133646 C117.9840319 15.53283257 106.0920523 14.07448493 94.20004456 12.61636653 C86.15379257 11.62977292 78.10756608 10.64297144 70.06135953 9.65600727 C65.46140015 9.09177231 60.86143047 8.5276217 56.26143026 7.96371961 C37.50485479 5.66433894 18.74939209 3.35741753 0 1 C0 0.67 0 0.34 0 0 Z " fill="#FD5D2F" transform="translate(79,1023)"/>
<path d="M0 0 C237.93 0 475.86 0 721 0 C719.0384392 7.19238959 717.01449841 14.20271626 714.59375 21.23046875 C714.1065448 22.65810295 714.1065448 22.65810295 713.60949707 24.11457825 C712.5761529 27.13997522 711.53815904 30.16375233 710.5 33.1875 C709.83563359 35.1307555 709.17156957 37.07411441 708.5078125 39.01757812 C704.42775996 50.95498761 700.32214566 62.88364756 696.22070312 74.8137207 C695.71111776 76.29605259 695.20153522 77.77838545 694.69195557 79.2607193 C693.46133625 82.84049072 692.23067903 86.42024911 691 90 C618.00154448 80.7576171 545.00763752 71.48001805 472.01953125 62.15625 C471.10744526 62.03973976 470.19535927 61.92322953 469.25563431 61.80318868 C425.81244061 56.25372649 382.36985406 50.69951651 338.92745733 45.14381933 C332.93706945 44.37772987 326.94667875 43.61166235 320.95628738 42.84560013 C319.97127547 42.71963469 318.98626356 42.59366926 317.97140281 42.46388669 C313.01349501 41.82985912 308.05558677 41.195835 303.09767795 40.5618155 C293.28791609 39.3073337 283.47816289 38.05278436 273.66842651 36.79810333 C229.61937128 31.16422956 185.56914449 25.53987097 141.51518315 19.94448376 C132.98663898 18.86115438 124.4582786 17.77638936 115.93006897 16.69042969 C114.78552594 16.54468789 113.64098292 16.39894609 112.46175677 16.24878788 C106.91731409 15.54271759 101.37289802 14.83643882 95.82850361 14.12998962 C84.53047392 12.69074282 73.231807 11.25671044 61.93222398 9.82970929 C54.52926701 8.89439887 47.12706487 7.95328171 39.72549564 7.00705218 C34.82982199 6.38142492 29.93337333 5.76250862 25.03611654 5.14940357 C22.1566913 4.78711237 19.2782032 4.41779981 16.39996946 4.04617214 C14.47473651 3.79969737 12.54842009 3.56173215 10.62208271 3.32404327 C9.49971808 3.17753075 8.37735346 3.03101822 7.22097778 2.88006592 C6.25239901 2.75729656 5.28382023 2.63452721 4.28589058 2.50803757 C2 2 2 2 0 0 Z " fill="#FE5D2F" transform="translate(45,1217)"/>
</svg>
